<svg width="460" height="130" viewBox="0 0 460 130" fill="none" xmlns="http://www.w3.org/2000/svg" role="img" aria-label="coven">
  <defs>
    <linearGradient id="cg" x1="0" y1="0" x2="1" y2="1">
      <stop offset="0" stop-color="#7c3aed"/>
      <stop offset="0.5" stop-color="#a21caf"/>
      <stop offset="1" stop-color="#c026d3"/>
    </linearGradient>
    <mask id="moon">
      <rect x="0" y="0" width="130" height="130" fill="#fff"/>
      <circle cx="82" cy="56" r="34" fill="#000"/>
    </mask>
  </defs>
  <circle cx="62" cy="65" r="38" fill="url(#cg)" mask="url(#moon)"/>
  <g fill="url(#cg)">
    <path d="M112 30 c1.6 6 1.6 6 7.6 7.6 c-6 1.6 -6 1.6 -7.6 7.6 c-1.6 -6 -1.6 -6 -7.6 -7.6 c6 -1.6 6 -1.6 7.6 -7.6 Z"/>
    <path d="M40 18 c1 3.6 1 3.6 4.6 4.6 c-3.6 1 -3.6 1 -4.6 4.6 c-1 -3.6 -1 -3.6 -4.6 -4.6 c3.6 -1 3.6 -1 4.6 -4.6 Z"/>
    <path d="M96 96 c0.9 3.2 0.9 3.2 4.1 4.1 c-3.2 0.9 -3.2 0.9 -4.1 4.1 c-0.9 -3.2 -0.9 -3.2 -4.1 -4.1 c3.2 -0.9 3.2 -0.9 4.1 -4.1 Z"/>
  </g>
  <text x="140" y="87" font-family="'Segoe UI', 'Helvetica Neue', Helvetica, Arial, sans-serif" font-size="76" font-weight="800" letter-spacing="-2" fill="#1e1b2e">coven</text>
</svg>
